<svg width="38" height="38" viewBox="0 0 38 38" fill="none" xmlns="http://www.w3.org/2000/svg">
<path d="M19 38C29.4934 38 38 29.4934 38 19C38 8.50659 29.4934 0 19 0C8.50659 0 0 8.50659 0 19C0 29.4934 8.50659 38 19 38Z" fill="#D2D5D9"/>
<path d="M31.1374 12.9026C30.9931 12.3624 30.709 11.8699 30.3136 11.4746C29.9183 11.0792 29.4257 10.7951 28.8856 10.6507C26.9208 10.1328 18.9999 10.1328 18.9999 10.1328C18.9999 10.1328 11.0791 10.1328 9.10306 10.662C8.56292 10.8063 8.07036 11.0905 7.67502 11.4858C7.27968 11.8811 6.99553 12.3737 6.85121 12.9138C6.32202 14.8842 6.32202 19.0107 6.32202 19.0107C6.32202 19.0107 6.32202 23.1316 6.85121 25.1076C6.99553 25.6478 7.27968 26.1403 7.67502 26.5357C8.07036 26.931 8.56292 27.2152 9.10306 27.3595C11.0791 27.8661 18.9999 27.8661 18.9999 27.8661C18.9999 27.8661 26.9208 27.8661 28.8968 27.337C29.437 27.1926 29.9295 26.9085 30.3249 26.5131C30.7202 26.1178 31.0044 25.6253 31.1487 25.0851C31.6779 23.1147 31.6779 18.9882 31.6779 18.9882C31.6779 18.9882 31.6666 14.8786 31.1374 12.9026ZM16.4666 22.7995V15.1995L23.0477 18.9995L16.4666 22.7995Z" fill="white"/>
</svg>
