<svg width="38" height="38" viewBox="0 0 38 38" fill="none" xmlns="http://www.w3.org/2000/svg">
<path d="M19 38C29.4934 38 38 29.4934 38 19C38 8.50659 29.4934 0 19 0C8.50659 0 0 8.50659 0 19C0 29.4934 8.50659 38 19 38Z" fill="#D2D5D9"/>
<path d="M18.9997 9.19326C22.1945 9.19326 22.5717 9.19326 23.8327 9.26363C24.5921 9.2714 25.3444 9.41043 26.0564 9.67459C26.5716 9.87417 27.0395 10.179 27.4301 10.5697C27.8208 10.9603 28.1256 11.4282 28.3252 11.9433C28.5893 12.6553 28.7284 13.4077 28.7361 14.167C28.7953 15.4281 28.8065 15.8053 28.8065 19.0001C28.8065 22.1949 28.8065 22.5721 28.7361 23.8331C28.7284 24.5925 28.5893 25.3448 28.3252 26.0568C28.1256 26.572 27.8208 27.0398 27.4301 27.4305C27.0395 27.8211 26.5716 28.126 26.0564 28.3256C25.3444 28.5897 24.5921 28.7287 23.8327 28.7365C22.5717 28.7956 22.1945 28.8069 18.9997 28.8069C15.8049 28.8069 15.4277 28.8069 14.1667 28.7365C13.4073 28.7287 12.655 28.5897 11.943 28.3256C11.4278 28.126 10.96 27.8211 10.5693 27.4305C10.1787 27.0398 9.8738 26.572 9.67422 26.0568C9.41007 25.3448 9.27103 24.5925 9.26326 23.8331C9.20415 22.5721 9.19289 22.1949 9.19289 19.0001C9.19289 15.8053 9.19289 15.4281 9.26326 14.167C9.27103 13.4077 9.41007 12.6553 9.67422 11.9433C9.8738 11.4282 10.1787 10.9603 10.5693 10.5697C10.96 10.179 11.4278 9.87417 11.943 9.67459C12.655 9.41043 13.4073 9.2714 14.1667 9.26363C15.4277 9.20452 15.8049 9.19326 18.9997 9.19326ZM18.9997 7.03711C15.7514 7.03711 15.3404 7.05118 14.0682 7.11029C13.0749 7.13121 12.0924 7.3216 11.1633 7.67326C10.3691 7.97919 9.64761 8.44771 9.04509 9.04878C8.44256 9.64985 7.9723 10.3702 7.66445 11.1636C7.31279 12.0928 7.1224 13.0752 7.10148 14.0685C7.05082 15.3436 7.03674 15.763 7.03674 19.0001C7.03674 22.2371 7.05082 22.6593 7.10993 23.9316C7.13084 24.9249 7.32124 25.9073 7.67289 26.8365C7.97976 27.6315 8.44958 28.3535 9.05215 28.9561C9.65472 29.5586 10.3767 30.0285 11.1717 30.3353C12.1009 30.687 13.0833 30.8774 14.0766 30.8983C15.3517 30.9574 15.7655 30.9715 19.0082 30.9715C22.2508 30.9715 22.6674 30.9715 23.9397 30.8983C24.933 30.8774 25.9154 30.687 26.8446 30.3353C27.6396 30.0285 28.3616 29.5586 28.9642 28.9561C29.5667 28.3535 30.0365 27.6315 30.3434 26.8365C30.6951 25.9073 30.8855 24.9249 30.9064 23.9316C30.9655 22.6565 30.9796 22.2427 30.9796 19.0001C30.9796 15.7574 30.9796 15.3408 30.9064 14.0685C30.8855 13.0752 30.6951 12.0928 30.3434 11.1636C30.0356 10.3678 29.5645 9.64531 28.9604 9.04269C28.3563 8.44006 27.6327 7.97069 26.8361 7.66481C25.907 7.31316 24.9245 7.12277 23.9313 7.10185C22.6561 7.05118 22.2367 7.03711 18.9997 7.03711Z" fill="white"/>
<path d="M18.9997 12.8579C17.785 12.8579 16.5975 13.2181 15.5874 13.893C14.5774 14.5679 13.7902 15.5271 13.3253 16.6494C12.8604 17.7717 12.7388 19.0067 12.9758 20.1981C13.2128 21.3895 13.7978 22.4839 14.6567 23.3428C15.5157 24.2018 16.6101 24.7868 17.8015 25.0237C18.9929 25.2607 20.2278 25.1391 21.3501 24.6742C22.4724 24.2094 23.4317 23.4221 24.1065 22.4121C24.7814 21.4021 25.1416 20.2146 25.1416 18.9998C25.1416 17.3709 24.4945 15.8087 23.3427 14.6568C22.1909 13.505 20.6287 12.8579 18.9997 12.8579ZM18.9997 22.9912C18.211 22.9912 17.4399 22.7574 16.7841 22.3192C16.1282 21.8811 15.617 21.2583 15.315 20.5297C15.013 19.801 14.9339 18.9992 15.0876 18.2255C15.2412 17.4519 15.6208 16.7412 16.1784 16.1833C16.7359 15.6254 17.4463 15.2453 18.2199 15.091C18.9934 14.9368 19.7953 15.0154 20.5241 15.3169C21.253 15.6183 21.8761 16.1291 22.3147 16.7847C22.7534 17.4402 22.9878 18.2111 22.9883 18.9998C22.9876 20.0574 22.5671 21.0715 21.8193 21.8194C21.0714 22.5672 20.0573 22.9877 18.9997 22.9884V22.9912Z" fill="white"/>
<path d="M25.3865 14.0488C26.1793 14.0488 26.822 13.4061 26.822 12.6133C26.822 11.8205 26.1793 11.1777 25.3865 11.1777C24.5936 11.1777 23.9509 11.8205 23.9509 12.6133C23.9509 13.4061 24.5936 14.0488 25.3865 14.0488Z" fill="white"/>
</svg>
