<svg width="38" height="38" viewBox="0 0 38 38" fill="none" xmlns="http://www.w3.org/2000/svg">
<path d="M19 38C29.4934 38 38 29.4934 38 19C38 8.50659 29.4934 0 19 0C8.50659 0 0 8.50659 0 19C0 29.4934 8.50659 38 19 38Z" fill="#D2D5D9"/>
<path fill-rule="evenodd" clip-rule="evenodd" d="M28.1481 10.0938C26.0806 8.0283 23.3331 6.78413 20.4169 6.59278C17.5006 6.40143 14.6142 7.27591 12.2944 9.05356C9.97472 10.8312 8.37971 13.391 7.80613 16.2566C7.23255 19.1223 7.71945 22.0988 9.17627 24.6323L7.45923 30.8756L13.8489 29.1867C15.6132 30.159 17.5934 30.673 19.608 30.6814C21.9957 30.6872 24.3314 29.9836 26.3187 28.6599C28.306 27.3363 29.8554 25.4522 30.7703 23.2466C31.6852 21.0411 31.9244 18.6135 31.4575 16.2718C30.9907 13.9302 29.8389 11.7799 28.1481 10.0938ZM19.6136 28.6322C17.818 28.629 16.0563 28.1429 14.5132 27.2248L14.1444 27.0221L10.3529 28.0129L11.3662 24.3171L11.1269 23.9399C9.9462 22.0587 9.42411 19.8384 9.64273 17.6282C9.86135 15.4179 10.8083 13.343 12.3347 11.7295C13.8611 10.1161 15.8804 9.05567 18.0751 8.71493C20.2699 8.37419 22.5156 8.77247 24.4594 9.84716C26.4031 10.9219 27.9346 12.612 28.813 14.652C29.6915 16.6919 29.8672 18.9659 29.3124 21.1166C28.7576 23.2672 27.5039 25.1725 25.7482 26.533C23.9926 27.8934 21.8346 28.6318 19.6136 28.6322ZM25.1081 21.1307C24.8069 20.9815 23.3263 20.2525 23.0505 20.1512C22.7746 20.0498 22.5748 20.002 22.3721 20.3032C22.1695 20.6043 21.5952 21.2827 21.4207 21.4826C21.2462 21.6824 21.0689 21.7106 20.7677 21.5586C19.8785 21.2062 19.0582 20.7003 18.3441 20.0639C17.681 19.4561 17.1118 18.7531 16.6552 17.9781C16.4807 17.6769 16.6383 17.5137 16.7875 17.3645C16.9367 17.2153 17.0887 17.0126 17.2407 16.8381C17.3695 16.6831 17.4756 16.5106 17.556 16.3258C17.595 16.2427 17.6131 16.1512 17.6087 16.0595C17.6043 15.9677 17.5775 15.8785 17.5306 15.7994C17.4546 15.6474 16.8523 14.1669 16.6017 13.5645C16.3512 12.9621 16.1092 13.055 15.9234 13.0466C15.7376 13.0381 15.5462 13.0466 15.3604 13.0466C15.2079 13.0509 15.058 13.0866 14.92 13.1515C14.7819 13.2164 14.6588 13.3091 14.5582 13.4237C14.2176 13.7461 13.9479 14.1358 13.7661 14.568C13.5844 15.0003 13.4947 15.4657 13.5026 15.9346C13.5026 17.418 14.5835 18.8479 14.7327 19.0506C14.8819 19.2532 16.8579 22.2932 19.8782 23.5965C20.4387 23.8383 21.0119 24.0497 21.5952 24.2298C22.2096 24.4172 22.8592 24.4586 23.4924 24.3509C24.0554 24.2636 25.2742 23.6218 25.5247 22.9181C25.7752 22.2144 25.7752 21.612 25.6992 21.4854C25.6232 21.3587 25.4093 21.2827 25.1081 21.1307Z" fill="white"/>
</svg>
