<svg width="38" height="38" viewBox="0 0 38 38" fill="none" xmlns="http://www.w3.org/2000/svg">
<path d="M19 38C29.4934 38 38 29.4934 38 19C38 8.50659 29.4934 0 19 0C8.50659 0 0 8.50659 0 19C0 29.4934 8.50659 38 19 38Z" fill="#D2D5D9"/>
<path d="M15.1605 29.944C24.4494 29.944 29.5161 22.2539 29.5161 15.5884C29.5161 15.3688 29.5161 15.1521 29.5161 14.9354C30.5031 14.2207 31.3552 13.3362 32.0325 12.3232C31.1124 12.7319 30.136 12.9995 29.1361 13.117C30.1888 12.4865 30.977 11.4953 31.3542 10.3275C30.3616 10.91 29.2776 11.3202 28.1481 11.5407C27.4551 10.8028 26.5562 10.2903 25.5682 10.0699C24.5802 9.84941 23.5487 9.93117 22.6078 10.3045C21.6668 10.6779 20.8599 11.3255 20.2918 12.1634C19.7237 13.0013 19.4207 13.9906 19.4221 15.0029C19.4207 15.3895 19.4641 15.7749 19.5516 16.1514C17.5434 16.0533 15.5784 15.5334 13.7845 14.6255C11.9906 13.7176 10.4079 12.4421 9.13963 10.882C8.49318 11.992 8.2943 13.3068 8.58352 14.5583C8.87274 15.8099 9.6283 16.904 10.6962 17.6179C9.89449 17.5937 9.11042 17.3765 8.41059 16.9845C8.40919 17.0061 8.40919 17.0277 8.41059 17.0493C8.41105 18.2145 8.81469 19.3437 9.55301 20.2452C10.2913 21.1466 11.3188 21.7649 12.4611 21.9949C11.7185 22.1965 10.9398 22.2264 10.1839 22.0822C10.5082 23.0833 11.1361 23.9586 11.9805 24.5867C12.8249 25.2147 13.8438 25.5642 14.8959 25.5866C13.1091 26.9896 10.9019 27.7501 8.63015 27.7456C8.22846 27.7463 7.82708 27.7228 7.42822 27.6752C9.73406 29.1588 12.4186 29.9465 15.1605 29.944Z" fill="white"/>
</svg>
