<svg width="123" height="123" viewBox="0 0 123 123" fill="none" xmlns="http://www.w3.org/2000/svg">
<circle cx="61.5" cy="61.5" r="60.25" stroke="#E3E5E8" stroke-width="2.5"/>
<path d="M36.2272 75.1336H31.6126C29.0284 75.1336 26.998 73.1031 26.998 70.519V37.1092C26.998 34.5251 29.0284 32.4946 31.6126 32.4946H69.8215C72.4057 32.4946 74.4361 34.5251 74.4361 37.1092V75.1336H52.286" stroke="#D23024" stroke-width="2.5" stroke-miterlimit="10" stroke-linecap="round" stroke-linejoin="round"/>
<path d="M94.1866 75.1334H102.493C104.431 75.1334 106 73.5645 106 71.6263V60.6436C106 59.9975 105.815 59.3515 105.539 58.89L98.2474 45.2308C96.5862 42.3698 91.6024 40.7085 88.3722 40.7085H74.5284V75.1334H78.3124" stroke="#D23024" stroke-width="2.5" stroke-miterlimit="10" stroke-linecap="round" stroke-linejoin="round"/>
<path d="M98.6166 45.9692H82.5578C81.358 45.9692 80.3428 46.9845 80.3428 48.1842V55.1984C80.3428 56.3982 81.358 57.4135 82.5578 57.4135H104.154" stroke="#D23024" stroke-width="2.5" stroke-miterlimit="10" stroke-linecap="round" stroke-linejoin="round"/>
<path d="M106 64.7043H101.847C100.186 64.7043 98.8935 65.9964 98.8935 67.6577C98.8935 69.3189 99.7241 70.611 102.77 70.611H106" stroke="#D23024" stroke-width="2.5" stroke-miterlimit="10" stroke-linecap="round" stroke-linejoin="round"/>
<path d="M32.6278 39.2319H19.2454" stroke="#D23024" stroke-width="2.5" stroke-miterlimit="10" stroke-linecap="round" stroke-linejoin="round"/>
<path d="M30.4128 52.9834H21.4604" stroke="#D23024" stroke-width="2.5" stroke-miterlimit="10" stroke-linecap="round" stroke-linejoin="round"/>
<path d="M37.7038 64.7043H15" stroke="#D23024" stroke-width="2.5" stroke-miterlimit="10" stroke-linecap="round" stroke-linejoin="round"/>
<path d="M44.2566 89.1618C49.4047 89.1618 53.5781 84.9884 53.5781 79.8403C53.5781 74.6922 49.4047 70.5188 44.2566 70.5188C39.1084 70.5188 34.9351 74.6922 34.9351 79.8403C34.9351 84.9884 39.1084 89.1618 44.2566 89.1618Z" stroke="#D23024" stroke-width="2.5" stroke-miterlimit="10" stroke-linecap="round" stroke-linejoin="round"/>
<path d="M44.2566 83.9935C46.5503 83.9935 48.4097 82.1341 48.4097 79.8404C48.4097 77.5467 46.5503 75.6873 44.2566 75.6873C41.9629 75.6873 40.1035 77.5467 40.1035 79.8404C40.1035 82.1341 41.9629 83.9935 44.2566 83.9935Z" stroke="#D23024" stroke-width="2.5" stroke-miterlimit="10" stroke-linecap="round" stroke-linejoin="round"/>
<path d="M86.2494 89.1618C91.3975 89.1618 95.5709 84.9884 95.5709 79.8403C95.5709 74.6922 91.3975 70.5188 86.2494 70.5188C81.1013 70.5188 76.9279 74.6922 76.9279 79.8403C76.9279 84.9884 81.1013 89.1618 86.2494 89.1618Z" stroke="#D23024" stroke-width="2.5" stroke-miterlimit="10" stroke-linecap="round" stroke-linejoin="round"/>
<path d="M86.2495 83.9935C88.5432 83.9935 90.4027 82.1341 90.4027 79.8404C90.4027 77.5467 88.5432 75.6873 86.2495 75.6873C83.9558 75.6873 82.0964 77.5467 82.0964 79.8404C82.0964 82.1341 83.9558 83.9935 86.2495 83.9935Z" stroke="#D23024" stroke-width="2.5" stroke-miterlimit="10" stroke-linecap="round" stroke-linejoin="round"/>
<path d="M77.9432 83.9937H52.5629" stroke="#D23024" stroke-width="2.5" stroke-miterlimit="10" stroke-linecap="round" stroke-linejoin="round"/>
<path d="M94.1866 75.1335H97.6937C100.093 75.1335 102.124 77.0717 102.124 79.5636C102.124 81.9632 100.186 83.9936 97.6937 83.9936H94.5557" stroke="#D23024" stroke-width="2.5" stroke-miterlimit="10" stroke-linecap="round" stroke-linejoin="round"/>
<path d="M52.286 75.1335H78.2201" stroke="#D23024" stroke-width="2.5" stroke-miterlimit="10" stroke-linecap="round" stroke-linejoin="round"/>
<path d="M35.9503 83.9936H33.8276C31.428 83.9936 29.3976 82.0554 29.3976 79.5636C29.3976 77.164 31.3357 75.1335 33.8276 75.1335H36.2272" stroke="#D23024" stroke-width="2.5" stroke-miterlimit="10" stroke-linecap="round" stroke-linejoin="round"/>
<path d="M82.0964 62.1206H77.9432" stroke="#D23024" stroke-width="2.5" stroke-miterlimit="10" stroke-linecap="round" stroke-linejoin="round"/>
</svg>
