<svg width="123" height="123" viewBox="0 0 123 123" fill="none" xmlns="http://www.w3.org/2000/svg">
<circle cx="61.5" cy="61.5" r="60.25" stroke="#E3E5E8" stroke-width="2.5"/>
<path d="M79.4864 44.7491L80.6966 35.9898L72.4559 34.8373L68.422 27L60.8153 30.9763L53.2661 27L49.5204 34.3763L40.8187 36.1627L41.9136 44.4034L36.0933 50.7423L41.9712 56.7932L40.8187 65.2643L49.2322 66.8779L53.1509 74.1389L60.8153 70.6813L68.1915 74.1389L72.283 66.7626L80.6966 65.1491L79.4864 56.7355L85.3067 50.5695L79.4864 44.7491Z" stroke="#D23024" stroke-width="2.5" stroke-miterlimit="10" stroke-linecap="round" stroke-linejoin="round"/>
<path d="M73.5508 49.6476C73.5508 49.9357 73.6085 50.2238 73.6085 50.5696C73.6085 57.6577 67.8458 63.478 60.7 63.478C53.5543 63.478 47.7916 57.7153 47.7916 50.5696C47.7916 43.4238 53.5543 37.6611 60.7 37.6611C62.6017 37.6611 64.3881 38.0645 66.0017 38.8137" stroke="#D23024" stroke-width="2.5" stroke-miterlimit="10" stroke-linecap="round" stroke-linejoin="round"/>
<path d="M55.7441 48.8408L61.1034 53.912L71.6491 43.0781" stroke="#D23024" stroke-width="2.5" stroke-miterlimit="10" stroke-linecap="round" stroke-linejoin="round"/>
<path d="M49.6356 67.6272L37.7645 88.2577L46.3509 86.8746L49.6356 95L63.178 71.7763" stroke="#D23024" stroke-width="2.5" stroke-miterlimit="10" stroke-linecap="round" stroke-linejoin="round"/>
<path d="M71.7643 67.6272L83.5203 87.9119L74.8762 86.817L71.7643 95L60.7 75.9831" stroke="#D23024" stroke-width="2.5" stroke-miterlimit="10" stroke-linecap="round" stroke-linejoin="round"/>
</svg>
