<svg width="123" height="123" viewBox="0 0 123 123" fill="none" xmlns="http://www.w3.org/2000/svg">
<circle cx="61.5" cy="61.5" r="60.25" stroke="#E3E5E8" stroke-width="2.5"/>
<path d="M40.2502 35.6248C35.6596 35.7291 31.9036 39.4851 31.9036 44.0757V55.4481C31.9036 62.334 37.5376 67.968 44.4235 67.968H51.3095C58.1955 67.968 63.8295 62.334 63.8295 55.4481V44.0757C63.8295 43.8671 63.8295 43.7627 63.8295 43.5541" stroke="#D23024" stroke-width="2.5" stroke-miterlimit="10" stroke-linecap="round" stroke-linejoin="round"/>
<path d="M32.0081 54.1956C29.3997 54.1956 27.2087 52.0046 27.2087 49.3962C27.2087 46.7879 29.3997 44.5969 32.0081 44.5969" stroke="#D23024" stroke-width="2.5" stroke-miterlimit="10" stroke-linecap="round" stroke-linejoin="round"/>
<path d="M63.9341 44.5969C66.5424 44.5969 68.7334 46.7879 68.7334 49.3962C68.7334 52.0046 66.5424 54.1956 63.9341 54.1956" stroke="#D23024" stroke-width="2.5" stroke-miterlimit="10" stroke-linecap="round" stroke-linejoin="round"/>
<path d="M54 57C54 59.2222 51.3333 61 48 61C44.6667 61 42 59.2222 42 57" stroke="#D23024" stroke-width="2.5" stroke-miterlimit="10" stroke-linecap="round" stroke-linejoin="round"/>
<path d="M51 50C51 48.9286 52.3929 48 54 48C55.6071 48 57 48.9286 57 50" stroke="#D23024" stroke-width="2.5" stroke-miterlimit="10" stroke-linecap="round" stroke-linejoin="round"/>
<path d="M38 50C38 48.9286 39.3929 48 41 48C42.6071 48 44 48.9286 44 50" stroke="#D23024" stroke-width="2.5" stroke-miterlimit="10" stroke-linecap="round" stroke-linejoin="round"/>
<path d="M40.2502 33.8506C40.2502 33.8506 41.1892 39.9019 50.3706 43.0319C56.4219 45.1186 62.0559 45.4316 66.3335 42.3016" stroke="#D23024" stroke-width="2.5" stroke-miterlimit="10" stroke-linecap="round" stroke-linejoin="round"/>
<path d="M27.626 47.414C27.2087 45.9533 27 44.3883 27 42.719C27 31.8683 36.39 23 47.971 23C59.5519 23 68.9419 31.8683 68.9419 42.719C68.9419 44.3883 68.7333 45.9533 68.3159 47.5183" stroke="#D23024" stroke-width="2.5" stroke-miterlimit="10" stroke-linecap="round" stroke-linejoin="round"/>
<path d="M36.5988 78.8183C32.0081 78.8183 28.3564 75.1667 28.3564 70.576V52.5264" stroke="#D23024" stroke-width="2.5" stroke-miterlimit="10" stroke-linecap="round" stroke-linejoin="round"/>
<path d="M67.1683 52.9436V70.5759C67.1683 74.3319 64.6643 77.4619 61.2213 78.5052" stroke="#D23024" stroke-width="2.5" stroke-miterlimit="10" stroke-linecap="round" stroke-linejoin="round"/>
<path d="M66.6465 87.0604C52.8745 87.0604 53.2919 76.9401 53.2919 76.9401C53.2919 72.1408 49.2229 68.2805 44.4235 68.5935C39.2069 68.9065 35.6596 74.0188 36.8072 79.1311C37.5376 82.1568 39.6242 83.8261 41.6066 86.4344C41.6066 86.4344 46.9275 95.1984 60.5952 95.1984H74.0542C76.1408 95.1984 77.8102 93.5291 77.8102 91.4424V89.1471C77.8102 87.8951 76.7668 86.8518 75.5148 86.8518H73.1152" stroke="#D23024" stroke-width="2.5" stroke-miterlimit="10" stroke-linecap="round" stroke-linejoin="round"/>
<path d="M73.1151 86.9562C73.1151 85.1826 71.6545 83.7219 69.8808 83.7219C68.1071 83.7219 66.6465 85.1826 66.6465 86.9562" stroke="#D23024" stroke-width="2.5" stroke-miterlimit="10" stroke-linecap="round" stroke-linejoin="round"/>
<path d="M41.8153 86.7475C41.8153 86.7475 50.8923 88.7298 55.0656 82.3655" stroke="#D23024" stroke-width="2.5" stroke-miterlimit="10" stroke-linecap="round" stroke-linejoin="round"/>
<path d="M47.9709 68.9065C48.8056 68.6978 49.7446 68.5935 50.5793 68.5935C56.4219 68.5935 61.2213 73.3928 61.2213 79.2355C61.2213 81.6352 60.3866 83.9305 59.0303 85.7041" stroke="#D23024" stroke-width="2.5" stroke-miterlimit="10" stroke-linecap="round" stroke-linejoin="round"/>
<path d="M36.7031 79.1311V86.2258C36.7031 91.2337 40.7721 95.3027 45.7801 95.3027H57.4654" stroke="#D23024" stroke-width="2.5" stroke-miterlimit="10" stroke-linecap="round" stroke-linejoin="round"/>
<path d="M73.1151 86.852V57.3257H96.6944V87.165H76.3494" stroke="#D23024" stroke-width="2.5" stroke-miterlimit="10" stroke-linecap="round" stroke-linejoin="round"/>
<path d="M73.1151 57.3252L84.8004 47.4136L96.6944 57.3252" stroke="#D23024" stroke-width="2.5" stroke-miterlimit="10" stroke-linecap="round" stroke-linejoin="round"/>
<path d="M84.8005 47.4142V42.7192" stroke="#D23024" stroke-width="2.5" stroke-miterlimit="10" stroke-linecap="round" stroke-linejoin="round"/>
<path d="M96.6944 63.5854H73.1151" stroke="#D23024" stroke-width="2.5" stroke-miterlimit="10" stroke-linecap="round" stroke-linejoin="round"/>
<path d="M96.6944 77.3574H73.1151" stroke="#D23024" stroke-width="2.5" stroke-miterlimit="10" stroke-linecap="round" stroke-linejoin="round"/>
<path d="M96.6945 87.165H99.5115C101.181 87.165 102.433 88.5214 102.433 90.0864C102.433 91.7557 101.077 93.0077 99.5115 93.0077H77.6016" stroke="#D23024" stroke-width="2.5" stroke-miterlimit="10" stroke-linecap="round" stroke-linejoin="round"/>
</svg>
