<svg width="123" height="123" viewBox="0 0 123 123" fill="none" xmlns="http://www.w3.org/2000/svg">
<circle cx="61.5" cy="61.5" r="60.25" stroke="#E3E5E8" stroke-width="2.5"/>
<path d="M49.2762 87.4779H72.5163C74.5773 87.4779 76.1997 85.8116 76.1997 83.7946V42.05C76.1997 39.9891 74.5334 38.3667 72.5163 38.3667H49.2762C47.2153 38.3667 45.5929 40.033 45.5929 42.05V83.7507C45.549 85.8116 47.2153 87.4779 49.2762 87.4779Z" stroke="#D23024" stroke-width="2.5" stroke-miterlimit="10" stroke-linecap="round" stroke-linejoin="round"/>
<path d="M49.276 38.3667H72.5161C74.577 38.3667 76.1994 36.7004 76.1994 34.6833C76.1994 32.6224 74.5332 31 72.5161 31H49.276C47.2151 31 45.5926 32.6663 45.5926 34.6833C45.5488 36.7004 47.2151 38.3667 49.276 38.3667Z" stroke="#D23024" stroke-width="2.5" stroke-miterlimit="10" stroke-linecap="round" stroke-linejoin="round"/>
<path d="M76.2435 52.6616H45.549" stroke="#D23024" stroke-width="2.5" stroke-miterlimit="10" stroke-linecap="round" stroke-linejoin="round"/>
<path d="M76.2435 73.9722H45.549" stroke="#D23024" stroke-width="2.5" stroke-miterlimit="10" stroke-linecap="round" stroke-linejoin="round"/>
<path d="M79.9888 73.9722C79.9888 81.4265 86.04 87.4777 93.4944 87.4777C100.949 87.4777 107 81.4265 107 73.9722H79.9888Z" stroke="#D23024" stroke-width="2.5" stroke-miterlimit="10" stroke-linecap="round" stroke-linejoin="round"/>
<path d="M104.413 70.5081H99.2825" stroke="#D23024" stroke-width="2.5" stroke-miterlimit="10" stroke-linecap="round" stroke-linejoin="round"/>
<path d="M87.0924 70.5081H81.9621" stroke="#D23024" stroke-width="2.5" stroke-miterlimit="10" stroke-linecap="round" stroke-linejoin="round"/>
<path d="M96.0815 70.5081H90.9512" stroke="#D23024" stroke-width="2.5" stroke-miterlimit="10" stroke-linecap="round" stroke-linejoin="round"/>
<path d="M100.116 66.6055H94.9853" stroke="#D23024" stroke-width="2.5" stroke-miterlimit="10" stroke-linecap="round" stroke-linejoin="round"/>
<path d="M91.6089 66.6055H86.4785" stroke="#D23024" stroke-width="2.5" stroke-miterlimit="10" stroke-linecap="round" stroke-linejoin="round"/>
<path d="M96.0815 62.7029H90.9512" stroke="#D23024" stroke-width="2.5" stroke-miterlimit="10" stroke-linecap="round" stroke-linejoin="round"/>
<path d="M60.8962 73.9721V58.2302" stroke="#D23024" stroke-width="2.5" stroke-miterlimit="10" stroke-linecap="round" stroke-linejoin="round"/>
<path d="M66.937 64.4706C69.127 62.9117 70.2989 60.8003 69.5546 59.7547C68.8103 58.709 66.4316 59.125 64.2416 60.6838C62.0516 62.2427 60.8796 64.354 61.6239 65.3997C62.3682 66.4454 64.747 66.0294 66.937 64.4706Z" stroke="#D23024" stroke-width="2.5" stroke-miterlimit="10" stroke-linecap="round" stroke-linejoin="round"/>
<path d="M60.1232 65.3884C60.8675 64.3427 59.6956 62.2313 57.5055 60.6725C55.3155 59.1137 52.9368 58.6977 52.1925 59.7433C51.4482 60.789 52.6201 62.9004 54.8102 64.4592C57.0002 66.0181 59.3789 66.4341 60.1232 65.3884Z" stroke="#D23024" stroke-width="2.5" stroke-miterlimit="10" stroke-linecap="round" stroke-linejoin="round"/>
<path d="M32.0691 87.4778V31.877" stroke="#D23024" stroke-width="2.5" stroke-miterlimit="10" stroke-linecap="round" stroke-linejoin="round"/>
<path d="M38.1025 70.9527C40.2925 69.3939 41.4645 67.2825 40.7202 66.2368C39.9759 65.1912 37.5971 65.6072 35.4071 67.166C33.2171 68.7248 32.0451 70.8362 32.7894 71.8819C33.5337 72.9276 35.9125 72.5116 38.1025 70.9527Z" stroke="#D23024" stroke-width="2.5" stroke-miterlimit="10" stroke-linecap="round" stroke-linejoin="round"/>
<path d="M31.2854 71.8696C32.0297 70.8239 30.8578 68.7125 28.6677 67.1537C26.4777 65.5949 24.099 65.1789 23.3547 66.2245C22.6104 67.2702 23.7823 69.3816 25.9724 70.9404C28.1624 72.4993 30.5411 72.9153 31.2854 71.8696Z" stroke="#D23024" stroke-width="2.5" stroke-miterlimit="10" stroke-linecap="round" stroke-linejoin="round"/>
<path d="M38.1013 60.1219C40.2913 58.5631 41.4633 56.4517 40.719 55.406C39.9747 54.3603 37.596 54.7763 35.4059 56.3352C33.2159 57.894 32.044 60.0054 32.7883 61.0511C33.5326 62.0968 35.9113 61.6808 38.1013 60.1219Z" stroke="#D23024" stroke-width="2.5" stroke-miterlimit="10" stroke-linecap="round" stroke-linejoin="round"/>
<path d="M31.2831 61.0403C32.0274 59.9946 30.8554 57.8832 28.6654 56.3244C26.4754 54.7655 24.0967 54.3495 23.3524 55.3952C22.6081 56.4409 23.78 58.5523 25.97 60.1111C28.16 61.6699 30.5388 62.0859 31.2831 61.0403Z" stroke="#D23024" stroke-width="2.5" stroke-miterlimit="10" stroke-linecap="round" stroke-linejoin="round"/>
<path d="M38.1001 49.2914C40.2902 47.7325 41.4621 45.6211 40.7178 44.5755C39.9735 43.5298 37.5948 43.9458 35.4048 45.5046C33.2147 47.0635 32.0428 49.1748 32.7871 50.2205C33.5314 51.2662 35.9101 50.8502 38.1001 49.2914Z" stroke="#D23024" stroke-width="2.5" stroke-miterlimit="10" stroke-linecap="round" stroke-linejoin="round"/>
<path d="M31.2808 50.2104C32.0251 49.1647 30.8532 47.0534 28.6632 45.4945C26.4732 43.9357 24.0944 43.5197 23.3501 44.5654C22.6058 45.611 23.7778 47.7224 25.9678 49.2813C28.1578 50.8401 30.5365 51.2561 31.2808 50.2104Z" stroke="#D23024" stroke-width="2.5" stroke-miterlimit="10" stroke-linecap="round" stroke-linejoin="round"/>
<path d="M38.099 38.4606C40.289 36.9017 41.4609 34.7903 40.7166 33.7447C39.9723 32.699 37.5936 33.115 35.4036 34.6738C33.2136 36.2326 32.0416 38.344 32.7859 39.3897C33.5302 40.4354 35.9089 40.0194 38.099 38.4606Z" stroke="#D23024" stroke-width="2.5" stroke-miterlimit="10" stroke-linecap="round" stroke-linejoin="round"/>
<path d="M31.2785 39.3811C32.0229 38.3354 30.8509 36.224 28.6609 34.6652C26.4709 33.1063 24.0921 32.6903 23.3478 33.736C22.6035 34.7817 23.7755 36.8931 25.9655 38.4519C28.1555 40.0108 30.5342 40.4268 31.2785 39.3811Z" stroke="#D23024" stroke-width="2.5" stroke-miterlimit="10" stroke-linecap="round" stroke-linejoin="round"/>
</svg>
