<svg width="123" height="123" viewBox="0 0 123 123" fill="none" xmlns="http://www.w3.org/2000/svg">
<circle cx="61.5" cy="61.5" r="60.25" stroke="#E3E5E8" stroke-width="2.5"/>
<path d="M74.2303 40.5443C74.6741 40.9198 75.1519 41.3294 75.6298 41.8414C76.2784 42.5583 77.5072 44.0261 78.2582 46.2107C78.4289 46.6885 78.6678 47.5078 78.8385 48.566C78.975 49.4193 79.2139 50.9895 78.975 52.5597C80.4428 53.0034 82.9687 53.7203 86.075 53.3448C87.6793 53.14 92.0144 52.5256 95.4961 48.9414C96.7591 47.6102 97.6125 46.2448 98.1586 45.016C98.7731 43.6847 98.2269 42.0804 96.9298 41.3636H96.8957C95.8033 40.7833 94.8134 40.3737 94.0966 40.1006C93.7211 39.964 93.4481 39.8616 93.2433 39.7934C92.1509 39.4179 90.5125 38.94 88.4644 38.6328C87.9524 38.5645 86.0409 38.3256 83.5832 38.428C83.3784 38.428 81.6716 38.5304 79.7601 38.94C78.7702 39.1448 78.3264 39.3155 77.951 39.5203C77.2341 39.8616 77.0293 40.1006 76.4832 40.3395C75.9712 40.4761 75.2543 40.6467 74.2303 40.5443Z" stroke="#D23024" stroke-width="2.5" stroke-miterlimit="10"/>
<path d="M94.0966 40.0666C92.0486 39.6229 87.4404 38.9402 83.1053 41.5003C81.2962 42.5584 78.975 44.1969 77.7803 45.0503" stroke="#D23024" stroke-width="2.5" stroke-miterlimit="10"/>
<path d="M69.2808 49.2832C71.1241 47.8837 73.6159 48.1567 75.0154 49.3856" stroke="#D23024" stroke-width="2.5" stroke-miterlimit="10"/>
<path d="M67.813 37.8819C69.5539 38.1892 71.6019 38.906 72.3529 39.3156C72.8308 39.5545 73.4793 39.9642 74.2303 40.5444C74.6058 40.2714 75.2202 39.7252 75.664 39.0425C75.9712 38.5988 76.4832 37.7113 76.688 36.4824C76.7563 36.1411 76.8587 35.1512 76.5515 33.9223C76.2101 32.6594 75.5957 31.8401 74.9813 31.0209C74.5375 30.4406 73.4793 29.2118 71.7385 28.1195C71.7385 28.1195 71.7043 28.1195 71.7043 28.0853C71.1923 27.7781 70.5779 28.3584 70.8851 28.9046C71.0899 29.2459 71.2947 29.6555 71.4313 30.1334C71.9774 31.806 71.6702 33.2055 71.4995 33.7517C71.1241 35.0829 70.4072 35.9704 69.9976 36.38C69.3149 37.0969 68.2568 37.643 67.813 37.8819Z" stroke="#D23024" stroke-width="2.5" stroke-miterlimit="10"/>
<path d="M46.2741 36.4824C46.4789 37.7113 46.9568 38.5646 47.2981 39.0425C47.7419 39.7252 48.3904 40.2714 48.7318 40.5444C49.4486 39.9642 50.1313 39.5545 50.6092 39.3156C51.3601 38.906 53.4082 38.1892 55.1491 37.8819C54.6712 37.6771 53.6472 37.0969 52.9303 36.38C52.5548 35.9704 51.8039 35.0829 51.4284 33.7517C51.2919 33.2396 50.9505 31.806 51.4967 30.1334C51.6332 29.6897 51.838 29.28 52.0428 28.9046C52.35 28.3584 51.7698 27.7781 51.2236 28.0853C51.2236 28.0853 51.1895 28.0853 51.1895 28.1195C49.4486 29.2118 48.3904 30.4406 47.9467 31.0209C47.2981 31.8401 46.6837 32.6594 46.3424 33.9223C46.1034 35.117 46.2058 36.107 46.2741 36.4824Z" stroke="#D23024" stroke-width="2.5" stroke-miterlimit="10"/>
<path d="M48.0491 74.6793C48.8342 73.8601 49.6193 73.3822 50.1313 73.1091C50.7457 72.8019 51.2577 72.6312 51.5991 72.5288" stroke="#D23024" stroke-width="2.5" stroke-miterlimit="10"/>
<path d="M71.363 72.4944C71.7043 72.5968 72.2163 72.7675 72.8308 73.0747C73.3428 73.3477 74.162 73.8256 74.913 74.6449" stroke="#D23024" stroke-width="2.5" stroke-miterlimit="10"/>
<path d="M49.3121 55.5635C49.3121 54.3688 50.302 53.3789 51.4967 53.3789C52.6914 53.3789 53.6813 54.3688 53.6813 55.5635" stroke="#D23024" stroke-width="2.5" stroke-miterlimit="10"/>
<path d="M45.1818 45.0504C43.9871 44.1629 41.6659 42.5586 39.8568 41.5004C35.5217 38.9403 30.9135 39.5888 28.8655 40.0667" stroke="#D23024" stroke-width="2.5" stroke-miterlimit="10"/>
<path d="M53.9885 49.1804C51.9404 47.6443 49.1755 47.9515 47.6053 49.2828" stroke="#D23024" stroke-width="2.5" stroke-miterlimit="10"/>
<path d="M41.0174 79.9358C41.0174 88.5377 50.1313 95.5011 61.3616 95.5011C63.0683 95.5011 64.7409 95.3305 66.3111 95.0232C75.1519 93.3507 81.7058 87.2064 81.7058 79.9358C81.7058 76.3175 80.1015 73.0065 77.4048 70.3781C73.6842 66.7257 67.8813 64.4045 61.3957 64.4045C55.0467 64.4045 49.3803 66.6233 45.6597 70.105C42.7582 72.7675 41.0174 76.2151 41.0174 79.9358Z" stroke="#D23024" stroke-width="2.5" stroke-miterlimit="10"/>
<path d="M71.2947 86.5576C71.2947 89.3225 66.8231 91.5413 61.3274 91.5413C55.8318 91.5413 51.3601 89.3225 51.3601 86.5576" stroke="#D23024" stroke-width="2.5" stroke-miterlimit="10"/>
<path d="M44.226 52.4914L45.0453 62.9025L45.6255 70.1049C49.3462 66.6231 55.0125 64.4044 61.3616 64.4044C67.8813 64.4044 73.65 66.7597 77.3707 70.3779L78.9067 52.5597C79.1457 50.9895 78.9068 49.4193 78.7702 48.566C78.6337 47.5078 78.3606 46.6886 78.1899 46.2107C77.439 44.0261 76.2101 42.5583 75.5616 41.8414C75.0837 41.3294 74.6058 40.9198 74.162 40.5443C73.4452 39.964 72.7625 39.5544 72.2846 39.3155C71.5337 38.9059 69.4856 38.189 67.7447 37.8818H55.1491C53.4082 38.189 51.3602 38.9059 50.6092 39.3155C50.1313 39.5544 49.4827 39.964 48.7318 40.5443C48.288 40.9198 47.8102 41.3294 47.3323 41.8414C46.6837 42.5583 45.4549 44.0261 44.7039 46.2107C44.5332 46.6886 44.2943 47.5078 44.1236 48.566C44.0212 49.3852 43.9529 50.9212 44.226 52.4914Z" stroke="#D23024" stroke-width="2.5" stroke-miterlimit="10"/>
<path d="M69.2808 49.3855C71.124 47.986 73.6159 48.259 75.0154 49.4879" stroke="#D23024" stroke-width="2.5" stroke-miterlimit="10" stroke-linecap="round" stroke-linejoin="round"/>
<path d="M48.0491 74.7813C48.8342 73.9621 49.6193 73.4842 50.1313 73.2111C50.7457 72.9039 51.2577 72.7333 51.5991 72.6309" stroke="#D23024" stroke-width="2.5" stroke-miterlimit="10" stroke-linecap="round" stroke-linejoin="round"/>
<path d="M71.363 72.6309C71.7043 72.7333 72.2163 72.9039 72.8308 73.2111C73.3428 73.4842 74.162 73.9621 74.913 74.7813" stroke="#D23024" stroke-width="2.5" stroke-miterlimit="10" stroke-linecap="round" stroke-linejoin="round"/>
<path d="M49.3121 55.6661C49.3121 54.4713 50.302 53.4814 51.4967 53.4814C52.6914 53.4814 53.6813 54.4713 53.6813 55.6661" stroke="#D23024" stroke-width="2.5" stroke-miterlimit="10" stroke-linecap="round" stroke-linejoin="round"/>
<path d="M69.5641 55.6661C69.5641 54.4713 70.5541 53.4814 71.7488 53.4814C72.9435 53.4814 73.9334 54.4713 73.9334 55.6661" stroke="#D23024" stroke-width="2.5" stroke-miterlimit="10" stroke-linecap="round" stroke-linejoin="round"/>
<path d="M45.1818 45.1869C43.9871 44.2994 41.6659 42.695 39.8568 41.6369C35.5217 39.0768 30.9135 39.7253 28.8655 40.2032" stroke="#D23024" stroke-width="2.5" stroke-miterlimit="10" stroke-linecap="round" stroke-linejoin="round"/>
<path d="M53.9885 49.2829C51.9404 47.7468 49.1755 48.0541 47.6053 49.3853" stroke="#D23024" stroke-width="2.5" stroke-miterlimit="10" stroke-linecap="round" stroke-linejoin="round"/>
<path d="M71.2947 86.6602C71.2947 89.4251 66.8231 91.6438 61.3274 91.6438C55.8318 91.6438 51.3601 89.4251 51.3601 86.6602" stroke="#D23024" stroke-width="2.5" stroke-miterlimit="10" stroke-linecap="round" stroke-linejoin="round"/>
<path d="M24.8376 44.982C25.3837 46.1768 26.2371 47.5763 27.5001 48.9075C30.9818 52.5258 35.3169 53.1061 36.9212 53.3109C40.0275 53.6864 42.7582 52.9013 44.226 52.4917C43.9871 50.9215 44.0212 49.3854 44.1577 48.532C44.2943 47.4739 44.5674 46.6546 44.738 46.1768C45.489 43.9921 46.7178 42.5244 47.3664 41.8075C47.8443 41.2955 48.3222 40.8859 48.7659 40.5104C47.7419 40.647 46.9909 40.4421 46.5472 40.2373C45.9669 39.9984 45.7962 39.7936 45.0794 39.4181C44.7039 39.2474 44.226 39.0768 43.2702 38.8378C41.3587 38.4282 39.6861 38.3258 39.4472 38.3258C36.9212 38.2575 35.0438 38.5306 34.4977 38.5989C32.4496 38.872 30.8111 39.384 29.7188 39.7595C29.514 39.8277 29.2068 39.9301 28.8655 40.0667C28.1486 40.3397 27.1929 40.7494 26.0664 41.3296H26.0323C24.7352 42.0465 24.189 43.6508 24.8376 44.982Z" stroke="#D23024" stroke-width="2.5" stroke-miterlimit="10"/>
</svg>
