<svg width="17" height="16" viewBox="0 0 17 16" fill="none" xmlns="http://www.w3.org/2000/svg">
<path d="M5.89093 14.4502C6.22858 14.4502 6.5023 14.1765 6.5023 13.8388C6.5023 13.5012 6.22858 13.2275 5.89093 13.2275C5.55329 13.2275 5.27957 13.5012 5.27957 13.8388C5.27957 14.1765 5.55329 14.4502 5.89093 14.4502Z" stroke="white" stroke-width="1.5" stroke-linecap="round" stroke-linejoin="round"/>
<path d="M14.45 14.4502C14.7876 14.4502 15.0613 14.1765 15.0613 13.8388C15.0613 13.5012 14.7876 13.2275 14.45 13.2275C14.1123 13.2275 13.8386 13.5012 13.8386 13.8388C13.8386 14.1765 14.1123 14.4502 14.45 14.4502Z" stroke="white" stroke-width="1.5" stroke-linecap="round" stroke-linejoin="round"/>
<path d="M1 1H3.44545L5.27954 11.3932H15.0614" stroke="white" stroke-width="1.5" stroke-linecap="round" stroke-linejoin="round"/>
<path d="M5.27958 8.94774H14.8107C14.8814 8.94778 14.95 8.92333 15.0046 8.87853C15.0593 8.83373 15.0968 8.77136 15.1107 8.70204L16.2111 3.19978C16.22 3.15541 16.2189 3.10962 16.208 3.06572C16.197 3.02183 16.1764 2.98091 16.1477 2.94592C16.119 2.91094 16.0829 2.88276 16.042 2.86343C16.0011 2.84409 15.9564 2.83408 15.9112 2.83411H4.05685" stroke="white" stroke-width="1.5" stroke-linecap="round" stroke-linejoin="round"/>
</svg>
