<svg width="21" height="19" viewBox="0 0 21 19" fill="none" xmlns="http://www.w3.org/2000/svg">
<path d="M7.18178 18.0003C7.60855 18.0003 7.95451 17.6543 7.95451 17.2275C7.95451 16.8008 7.60855 16.4548 7.18178 16.4548C6.75502 16.4548 6.40906 16.8008 6.40906 17.2275C6.40906 17.6543 6.75502 18.0003 7.18178 18.0003Z" stroke="#686A6D" stroke-width="1.5" stroke-linecap="round" stroke-linejoin="round"/>
<path d="M18 18.0003C18.4268 18.0003 18.7727 17.6543 18.7727 17.2275C18.7727 16.8008 18.4268 16.4548 18 16.4548C17.5733 16.4548 17.2273 16.8008 17.2273 17.2275C17.2273 17.6543 17.5733 18.0003 18 18.0003Z" stroke="#686A6D" stroke-width="1.5" stroke-linecap="round" stroke-linejoin="round"/>
<path d="M1 1H4.09091L6.40909 14.1364H18.7727" stroke="#686A6D" stroke-width="1.5" stroke-linecap="round" stroke-linejoin="round"/>
<path d="M6.40922 11.0454H18.456C18.5454 11.0455 18.632 11.0146 18.7011 10.958C18.7702 10.9013 18.8176 10.8225 18.8351 10.7349L20.2261 3.78036C20.2373 3.72429 20.2359 3.66641 20.2221 3.61093C20.2082 3.55544 20.1822 3.50372 20.1459 3.45951C20.1097 3.41529 20.064 3.37967 20.0123 3.35523C19.9606 3.33079 19.9041 3.31814 19.8469 3.31818H4.86377" stroke="#686A6D" stroke-width="1.5" stroke-linecap="round" stroke-linejoin="round"/>
</svg>
