<svg width="18" height="17" viewBox="0 0 18 17" fill="none" xmlns="http://www.w3.org/2000/svg">
<path d="M14.8462 1H3.15385C2.58311 1.00168 2.03621 1.23634 1.63264 1.65272C1.22907 2.06911 1.00162 2.63337 1 3.22222V10.8413C1.00162 11.4301 1.22907 11.9944 1.63264 12.4108C2.03621 12.8272 2.58311 13.0618 3.15385 13.0635H4.69231V16.2381L8.29692 13.1373C8.35228 13.0896 8.42211 13.0635 8.49423 13.0635H14.8462C15.4169 13.0618 15.9638 12.8272 16.3674 12.4108C16.7709 11.9944 16.9984 11.4301 17 10.8413V3.22222C16.9984 2.63337 16.7709 2.06911 16.3674 1.65272C15.9638 1.23634 15.4169 1.00168 14.8462 1Z" stroke="#D23024" stroke-width="1.5" stroke-linejoin="round"/>
</svg>
