<svg width="12" height="12" viewBox="0 0 12 12" fill="none" xmlns="http://www.w3.org/2000/svg">
<path d="M5.09089 1C4.28179 1 3.49085 1.23993 2.81811 1.68944C2.14537 2.13895 1.62103 2.77786 1.3114 3.52537C1.00177 4.27288 0.920759 5.09542 1.07861 5.88898C1.23645 6.68253 1.62607 7.41145 2.19819 7.98358C2.77031 8.5557 3.49924 8.94531 4.29279 9.10316C5.08635 9.26101 5.90889 9.18 6.6564 8.87037C7.40391 8.56074 8.04282 8.0364 8.49233 7.36366C8.94184 6.69091 9.18177 5.89998 9.18177 5.09088C9.1817 4.00593 8.75068 2.96544 7.9835 2.19827C7.21633 1.43109 6.17583 1.00007 5.09089 1V1Z" stroke="#CF2316" stroke-width="2" stroke-miterlimit="10"/>
<path d="M8.14301 8.14296L11 11" stroke="#CF2316" stroke-width="2" stroke-miterlimit="10" stroke-linecap="round"/>
</svg>
