<svg width="21" height="14" viewBox="0 0 21 14" fill="none" xmlns="http://www.w3.org/2000/svg">
<path d="M10.3804 1C7.11157 1 3.75845 2.89192 1.11873 6.67576C1.04338 6.78496 1.00209 6.91404 1.00008 7.04669C0.998062 7.17934 1.03541 7.30961 1.10741 7.42104C3.13563 10.5959 6.44388 13.0788 10.3804 13.0788C14.2741 13.0788 17.6503 10.5884 19.6823 7.40636C19.7526 7.29711 19.79 7.16994 19.79 7.04002C19.79 6.91009 19.7526 6.78292 19.6823 6.67367C17.6457 3.52815 14.2448 1 10.3804 1Z" stroke="#D23024" stroke-width="1.5" stroke-linecap="round" stroke-linejoin="round"/>
<path d="M10.3947 10.3946C12.2477 10.3946 13.7499 8.89245 13.7499 7.03942C13.7499 5.18638 12.2477 3.6842 10.3947 3.6842C8.54164 3.6842 7.03946 5.18638 7.03946 7.03942C7.03946 8.89245 8.54164 10.3946 10.3947 10.3946Z" stroke="#D23024" stroke-width="1.5" stroke-miterlimit="10"/>
</svg>
